<svg width="32" height="32" viewBox="0 0 32 32" xmlns="http://www.w3.org/2000/svg">
  <defs>
    <!-- Main gradient matching the app's theme -->
    <linearGradient id="mainGradient" x1="0%" y1="0%" x2="100%" y2="100%">
      <stop offset="0%" style="stop-color:#667eea"/>
      <stop offset="100%" style="stop-color:#764ba2"/>
    </linearGradient>
    
    <!-- Subtle inner glow -->
    <linearGradient id="innerGlow" x1="20%" y1="20%" x2="80%" y2="80%">
      <stop offset="0%" style="stop-color:#8b94ff"/>
      <stop offset="100%" style="stop-color:#9c7bc7"/>
    </linearGradient>
  </defs>
  
  <!-- Background circle with gradient -->
  <circle cx="16" cy="16" r="15" fill="url(#mainGradient)" stroke="rgba(255,255,255,0.15)" stroke-width="0.5"/>
  
  <!-- Inner highlight circle -->
  <circle cx="16" cy="16" r="13" fill="none" stroke="rgba(255,255,255,0.1)" stroke-width="0.5"/>
  
  <!-- Main "P" letterform -->
  <path d="M 10 8 L 10 24 L 12.5 24 L 12.5 17 L 18 17 C 20.5 17 22.5 15 22.5 12.5 C 22.5 10 20.5 8 18 8 Z M 12.5 10.5 L 18 10.5 C 19.1 10.5 20 11.4 20 12.5 C 20 13.6 19.1 14.5 18 14.5 L 12.5 14.5 Z" fill="white" opacity="0.95"/>
  
  <!-- Decorative dots representing "picks" -->
  <circle cx="24" cy="12" r="1.5" fill="rgba(255,255,255,0.4)"/>
  <circle cx="26" cy="16" r="1" fill="rgba(255,255,255,0.3)"/>
  <circle cx="24" cy="20" r="0.8" fill="rgba(255,255,255,0.25)"/>
  
  <!-- Subtle inner shadow/depth -->
  <circle cx="16" cy="16" r="15" fill="none" stroke="rgba(0,0,0,0.1)" stroke-width="0.5"/>
</svg> 