<svg width="32" height="32" viewBox="0 0 32 32" xmlns="http://www.w3.org/2000/svg">
  <defs>
    <!-- Main gradient matching the app's theme -->
    <linearGradient id="mainGradient" x1="0%" y1="0%" x2="100%" y2="100%">
      <stop offset="0%" style="stop-color:#667eea"/>
      <stop offset="100%" style="stop-color:#764ba2"/>
    </linearGradient>
  </defs>
  
  <!-- Background circle with gradient -->
  <circle cx="16" cy="16" r="15" fill="url(#mainGradient)" stroke="rgba(255,255,255,0.15)" stroke-width="0.5"/>
  
  <!-- Inner highlight circle -->
  <circle cx="16" cy="16" r="13" fill="none" stroke="rgba(255,255,255,0.1)" stroke-width="0.5"/>
  
  <!-- Hieroglyphic-style frog with horizontal tongue -->
  
  <!-- Main body - wider, more frog-like -->
  <ellipse 
    cx="16" 
    cy="20" 
    rx="7" 
    ry="5" 
    fill="none" 
    stroke="white" 
    stroke-width="2"
    stroke-linecap="round"
  />
  
  <!-- Head - larger, more prominent -->
  <ellipse 
    cx="16" 
    cy="13" 
    rx="5.5" 
    ry="4.5" 
    fill="none" 
    stroke="white" 
    stroke-width="2"
  />
  
  <!-- Bulging eyes on top of head - classic frog feature -->
  <circle 
    cx="13" 
    cy="9" 
    r="2.5" 
    fill="none" 
    stroke="white" 
    stroke-width="2"
  />
  <circle 
    cx="19" 
    cy="9" 
    r="2.5" 
    fill="none" 
    stroke="white" 
    stroke-width="2"
  />
  
  <!-- Eye pupils -->
  <circle 
    cx="13" 
    cy="9" 
    r="1.2" 
    fill="white"
  />
  <circle 
    cx="19" 
    cy="9" 
    r="1.2" 
    fill="white"
  />
  
  <!-- Eye highlights for life -->
  <circle cx="13.5" cy="8.5" r="0.5" fill="url(#mainGradient)" />
  <circle cx="19.5" cy="8.5" r="0.5" fill="url(#mainGradient)" />
  
  <!-- Mouth opening -->
  <ellipse 
    cx="12" 
    cy="15" 
    rx="1.5" 
    ry="1" 
    fill="none" 
    stroke="white" 
    stroke-width="1.5"
  />
  
  <!-- Horizontal tongue sticking out -->
  <path 
    d="M 10.5 15 Q 7 15 4 15" 
    fill="none" 
    stroke="white" 
    stroke-width="2" 
    stroke-linecap="round"
  />
  
  <!-- Tongue tip -->
  <circle 
    cx="4" 
    cy="15" 
    r="1" 
    fill="white"
  />
  
  <!-- Front legs - more defined -->
  <path 
    d="M 11 18 C 9 19 7 20 6 21" 
    fill="none" 
    stroke="white" 
    stroke-width="2" 
    stroke-linecap="round"
  />
  <path 
    d="M 21 18 C 23 19 25 20 26 21" 
    fill="none" 
    stroke="white" 
    stroke-width="2" 
    stroke-linecap="round"
  />
  
  <!-- Back legs - webbed feet -->
  <path 
    d="M 12 23 C 10 24 8 25 7 26" 
    fill="none" 
    stroke="white" 
    stroke-width="2" 
    stroke-linecap="round"
  />
  <path 
    d="M 20 23 C 22 24 24 25 25 26" 
    fill="none" 
    stroke="white" 
    stroke-width="2" 
    stroke-linecap="round"
  />
  
  <!-- Webbed foot details -->
  <path 
    d="M 6 26 L 7 25.5 L 8 26" 
    fill="none" 
    stroke="white" 
    stroke-width="1" 
    stroke-linecap="round"
  />
  <path 
    d="M 24 26 L 25 25.5 L 26 26" 
    fill="none" 
    stroke="white" 
    stroke-width="1" 
    stroke-linecap="round"
  />
  
  <!-- Nostrils - more prominent -->
  <circle cx="15" cy="12" r="0.4" fill="white" />
  <circle cx="17" cy="12" r="0.4" fill="white" />
  
  <!-- Subtle inner shadow/depth -->
  <circle cx="16" cy="16" r="15" fill="none" stroke="rgba(0,0,0,0.1)" stroke-width="0.5"/>
</svg> 